<svg width="27" height="22" viewBox="0 0 27 22" fill="none" xmlns="http://www.w3.org/2000/svg">
<path d="M16.2729 18.5593C16.2738 18.5327 16.2738 18.5044 16.2738 18.4779C16.2738 18.4389 16.2729 18.3991 16.2712 18.3602C16.2703 18.3398 16.2694 18.3194 16.2685 18.2991C16.2676 18.2681 16.2658 18.2371 16.2632 18.207C16.2605 18.1725 16.2579 18.138 16.2535 18.1035C16.2535 18.0982 16.2526 18.092 16.2517 18.0867C16.2499 18.0672 16.2473 18.0477 16.2446 18.0283C16.2419 18.0017 16.2375 17.9752 16.2331 17.9477C16.2322 17.9371 16.2304 17.9274 16.2287 17.9176C16.2251 17.8946 16.2216 17.8707 16.2163 17.8477C16.2154 17.8389 16.2136 17.8309 16.2119 17.8221C16.2092 17.8079 16.2065 17.7946 16.2039 17.7813C16.1977 17.7486 16.1906 17.7158 16.1826 17.6831C16.1817 17.6769 16.18 17.6716 16.1782 17.6663C16.172 17.6362 16.164 17.607 16.1561 17.5769C16.1555 17.5763 16.1552 17.5757 16.1552 17.5751C16.1499 17.5521 16.1428 17.5291 16.1357 17.5061C16.1322 17.491 16.1278 17.476 16.1224 17.4609C16.1162 17.4388 16.11 17.4176 16.1021 17.3963C16.1012 17.3928 16.1003 17.3884 16.0985 17.3848C16.0941 17.3707 16.0897 17.3574 16.0844 17.3432C16.0835 17.3406 16.0817 17.3379 16.0808 17.3353C16.0729 17.3105 16.064 17.2866 16.0543 17.2618C16.0357 17.2096 16.0153 17.1574 15.9923 17.106C15.9914 17.1043 15.9905 17.1025 15.9896 17.1007C15.9763 17.068 15.9613 17.0361 15.9463 17.0034C15.9303 16.9697 15.9135 16.9361 15.8967 16.9025C15.894 16.8972 15.8914 16.8919 15.8887 16.8874C15.6506 16.3245 15.3398 15.8006 14.9698 15.328C14.9308 15.2722 14.8901 15.2173 14.8485 15.1624C14.8449 15.1571 14.8405 15.1527 14.837 15.1474C14.8316 15.1412 14.8272 15.1341 14.8219 15.1279C14.6696 14.9297 14.5059 14.7394 14.3323 14.5597C13.9915 14.2057 13.6144 13.8897 13.2098 13.6189C13.2098 13.6189 13.2089 13.6189 13.2089 13.618C13.0088 13.4844 12.8034 13.3605 12.5909 13.2498C12.5874 13.2481 12.583 13.2454 12.5794 13.2436C12.5785 13.2436 12.5785 13.2428 12.5777 13.2428C12.5529 13.2268 12.5281 13.21 12.5033 13.1923C12.5024 13.1923 12.5024 13.1914 12.5015 13.1914C12.3935 13.1162 12.2864 13.0374 12.1828 12.956C12.1713 12.948 12.1589 12.9383 12.1474 12.9277C11.6888 12.5657 11.2754 12.1418 10.9213 11.6709C10.9213 11.6703 10.921 11.6697 10.9204 11.6691C10.908 11.6532 10.8956 11.6364 10.8832 11.6205C10.8832 11.6196 10.8823 11.6196 10.8823 11.6187C10.7628 11.4567 10.6495 11.2886 10.5441 11.116C10.5361 11.1036 10.5282 11.0903 10.5211 11.0779C10.167 10.4911 9.89694 9.8468 9.72609 9.16088C9.72343 9.10424 9.71545 9.04937 9.70395 8.99626C9.69066 8.93696 9.67385 8.88032 9.65083 8.82544C9.52246 8.49797 9.24005 8.24751 8.893 8.16165C8.86114 8.1528 8.82837 8.14661 8.79563 8.1413C8.74605 8.13333 8.69558 8.12979 8.64423 8.12891H8.62829C8.62034 8.12891 8.61325 8.12891 8.60616 8.12979C8.59908 8.12891 8.592 8.12979 8.58403 8.13068C8.5141 8.13244 8.44504 8.14218 8.37864 8.15723C8.35209 8.16343 8.32641 8.1705 8.30073 8.17847C8.29985 8.17847 8.29896 8.17936 8.29719 8.17936C6.99313 8.55019 6.00956 9.72555 5.88827 11.1505C5.8865 11.1647 5.88561 11.1797 5.88473 11.1939C5.87853 11.2788 5.875 11.3647 5.875 11.4505C5.875 11.7134 5.9042 11.9701 5.95999 12.2161C5.95999 12.2161 5.95999 12.217 5.96087 12.2179C5.97769 12.2949 5.99716 12.3701 6.02018 12.4453C6.02107 12.4489 6.02195 12.4515 6.02284 12.4551C6.0255 12.4657 6.02904 12.4772 6.03258 12.4878C6.03346 12.4914 6.03524 12.4949 6.03612 12.4984C6.09455 12.6834 6.16803 12.8604 6.25479 13.0295C6.27162 13.0666 6.28843 13.1029 6.30525 13.1392C6.30613 13.1401 6.30613 13.141 6.30613 13.141C6.33181 13.1959 6.35926 13.2498 6.3867 13.303C6.39289 13.3162 6.39998 13.3295 6.40707 13.3419C6.43362 13.3941 6.46106 13.4446 6.49028 13.4959C6.50178 13.5162 6.5133 13.5366 6.52569 13.557C6.53278 13.5694 6.53987 13.5826 6.54871 13.595C6.79748 14.0198 7.10025 14.4102 7.44553 14.7536C7.45261 14.7615 7.45969 14.7677 7.46678 14.7748C7.47032 14.7783 7.47475 14.7819 7.47828 14.7854C7.52166 14.8252 7.56328 14.8642 7.60224 14.9031C7.60666 14.9076 7.61108 14.912 7.61551 14.9155C7.61816 14.9182 7.61994 14.9208 7.6226 14.9226L7.63321 14.9332C7.63764 14.9368 7.64118 14.9403 7.64384 14.9438L7.64826 14.9492C7.73415 15.0359 7.81559 15.1226 7.89614 15.2138L7.89792 15.2156C8.24054 15.6041 8.52915 16.036 8.75844 16.5033L8.76198 16.5095C8.78322 16.5511 8.80271 16.5936 8.82218 16.637V16.6378C8.82218 16.6387 8.82307 16.6387 8.82307 16.6396C8.90009 16.8078 8.97003 16.9821 9.03111 17.1591C9.03289 17.1618 9.03377 17.1653 9.03466 17.168L9.05059 17.2158C9.17984 17.5955 9.26837 17.9867 9.31707 18.3858V18.3973C9.31529 18.4239 9.31529 18.4513 9.31529 18.4779C9.31529 18.6611 9.33035 18.8434 9.35867 19.024V19.0266C9.41888 19.4054 9.54194 19.7736 9.72254 20.1117C9.72432 20.1161 9.72697 20.1214 9.72962 20.1259C9.73404 20.1347 9.73936 20.1436 9.74468 20.1524V20.1533C9.74822 20.1586 9.75087 20.1648 9.75441 20.1701C9.77035 20.1993 9.78717 20.2276 9.80399 20.256C9.82435 20.2905 9.84471 20.3241 9.86595 20.3569C9.88721 20.3896 9.90934 20.4223 9.93148 20.4551C9.95361 20.487 9.97662 20.5188 9.99964 20.5498C10.0227 20.5817 10.0466 20.6126 10.0705 20.6427C10.0953 20.6728 10.1192 20.7029 10.1448 20.733C10.1696 20.7622 10.1953 20.7914 10.221 20.8197C10.2475 20.8481 10.2741 20.8764 10.3007 20.9038C10.3157 20.9197 10.3307 20.9348 10.3467 20.9507C10.3476 20.9516 10.3493 20.9534 10.3502 20.9543C10.3555 20.9596 10.3608 20.9649 10.3662 20.9693C10.3715 20.9746 10.3768 20.9799 10.383 20.9852C10.4104 21.0118 10.4388 21.0384 10.4671 21.064C10.4839 21.0799 10.5016 21.095 10.5184 21.1092C10.5299 21.1198 10.5423 21.1304 10.5547 21.1401C10.6486 21.2198 10.7468 21.2932 10.8495 21.3623C10.8743 21.3791 10.9 21.3959 10.9248 21.4118C10.9575 21.4322 10.9903 21.4526 11.0231 21.472C11.0841 21.5083 11.1452 21.5419 11.2081 21.5747C11.2231 21.5818 11.2382 21.5889 11.2532 21.5968C11.2559 21.5986 11.2594 21.5995 11.2621 21.6012C11.2647 21.603 11.2683 21.6039 11.2709 21.6057C11.2833 21.6119 11.2949 21.6172 11.3064 21.6225C11.3188 21.6287 11.3303 21.634 11.3427 21.6393C11.3719 21.6526 11.402 21.6667 11.433 21.6791C11.5711 21.7384 11.7145 21.788 11.8606 21.8287C11.8818 21.8349 11.903 21.8402 11.9243 21.8455C11.9429 21.8508 11.9615 21.8553 11.9801 21.8597C12.1297 21.896 12.282 21.9216 12.4369 21.9376C12.4688 21.9411 12.4997 21.9438 12.5316 21.9464C12.5352 21.9464 12.5387 21.9473 12.5423 21.9473C12.5821 21.95 12.6219 21.9517 12.6626 21.9535C12.706 21.9553 12.7503 21.9562 12.7946 21.9562C12.9636 21.9562 13.1328 21.9438 13.2948 21.9199H13.3001C13.3018 21.9199 13.3045 21.9199 13.3063 21.919H13.3089C13.6232 21.8871 13.9304 21.8101 14.2234 21.6897C15.362 21.2233 16.141 20.1754 16.2579 18.9523V18.9505C16.2685 18.8478 16.2738 18.7425 16.2738 18.6354C16.2738 18.6124 16.2738 18.5894 16.2729 18.5673L16.2729 18.5593ZM9.75353 20.0772H9.75441C9.75883 20.086 9.76326 20.0958 9.76858 20.1046L9.75353 20.0772ZM12.9548 21.9075C13.03 21.9039 13.1053 21.8986 13.1797 21.8898C13.1053 21.8986 13.03 21.9048 12.9548 21.9075ZM14.5138 21.5048C14.5165 21.503 14.5191 21.5012 14.5218 21.4995C14.5519 21.4835 14.5811 21.4676 14.6112 21.4508C14.5793 21.4694 14.5466 21.4871 14.5138 21.5048Z" fill="#156757"/>
<path d="M26.994 17.2806C26.994 19.8777 24.8835 21.9906 22.2895 21.9906C22.0668 21.9906 21.8488 21.9747 21.6345 21.9449C21.6037 21.9411 21.573 21.9365 21.5432 21.9309C21.5348 21.9299 21.5264 21.929 21.518 21.9271C21.4919 21.9225 21.4649 21.9178 21.4388 21.9131C21.3773 21.902 21.3167 21.8898 21.2562 21.8758C21.2264 21.8693 21.1956 21.8618 21.1658 21.8544C21.053 21.8273 20.9422 21.7956 20.8331 21.7592C20.8043 21.7499 20.7763 21.7406 20.7474 21.7303C20.6906 21.7107 20.6347 21.6902 20.5788 21.6678C20.5564 21.6594 20.5341 21.6501 20.5117 21.6407C20.3011 21.5549 20.0971 21.4533 19.9023 21.3376C19.8772 21.3227 19.8511 21.3068 19.8259 21.2919C19.7747 21.2592 19.7234 21.2266 19.6731 21.193C19.6265 21.1613 19.5799 21.1286 19.5343 21.095C19.525 21.0885 19.5156 21.082 19.5063 21.0745C19.4672 21.0456 19.4281 21.0167 19.3898 20.9859C19.3796 20.9784 19.3703 20.971 19.36 20.9616C19.3237 20.9337 19.2883 20.9047 19.2538 20.8749C19.2436 20.8665 19.2342 20.8581 19.224 20.8497C19.1886 20.8189 19.1532 20.7881 19.1187 20.7555C19.0796 20.72 19.0404 20.6836 19.0022 20.6454C18.9752 20.6193 18.9482 20.5922 18.923 20.5652C18.9072 20.5503 18.8932 20.5353 18.8792 20.5204C18.8597 20.4999 18.8401 20.4794 18.8215 20.4579C18.7926 20.4271 18.7646 20.3963 18.7376 20.3646C18.732 20.359 18.7274 20.3525 18.7218 20.346C18.692 20.3114 18.6631 20.2769 18.6351 20.2415C18.6165 20.2191 18.5988 20.1967 18.582 20.1743C18.5652 20.1538 18.5485 20.1323 18.5326 20.1109C18.5047 20.0745 18.4777 20.0372 18.4525 19.9999C18.4469 19.9933 18.4422 19.9859 18.4376 19.9793C18.4143 19.9476 18.3929 19.915 18.3714 19.8823C18.3537 19.8571 18.337 19.832 18.3211 19.8058C18.3071 19.7853 18.2941 19.7639 18.282 19.7424C18.2634 19.7135 18.2456 19.6836 18.2289 19.6538C18.214 19.6295 18.1991 19.6043 18.186 19.5792C18.172 19.5558 18.1581 19.5316 18.146 19.5064C18.1292 19.4765 18.1143 19.4467 18.0984 19.4168C18.0863 19.3926 18.0742 19.3683 18.063 19.3441C18.0444 19.3077 18.0267 19.2694 18.0099 19.2321C18.0053 19.2228 18.0006 19.2125 17.9969 19.2032C17.9745 19.1547 17.954 19.1062 17.9335 19.0568C17.9326 19.053 17.9307 19.0484 17.9288 19.0437C17.9065 18.9905 17.886 18.9364 17.8664 18.8814C17.8552 18.8534 17.845 18.8254 17.8357 18.7965C17.831 18.7853 17.8273 18.7732 17.8236 18.762C17.8198 18.762 17.75 18.5801 17.7276 18.4989C17.7267 18.4961 17.7267 18.4942 17.7257 18.4915C17.6987 18.3525 17.667 18.2144 17.6326 18.0782C17.6326 18.0773 17.6326 18.0763 17.6316 18.0754C17.421 17.247 17.094 16.4672 16.671 15.7554C16.6626 15.7405 16.6533 15.7265 16.6449 15.7116C16.6262 15.6798 16.6076 15.6491 16.588 15.6183C16.5834 15.6099 16.5787 15.6015 16.5731 15.5931C16.5731 15.5921 16.5722 15.5912 16.5713 15.5903C16.3393 15.2181 16.0802 14.8655 15.797 14.5352C15.7877 14.524 15.7783 14.5128 15.7681 14.5026C15.7662 14.4998 15.7644 14.497 15.7616 14.4942C15.7588 14.4905 15.756 14.4877 15.7532 14.4849C15.7476 14.4783 15.7429 14.4718 15.7373 14.4662L15.7364 14.4653C15.7299 14.4578 15.7234 14.4503 15.7178 14.4429C15.7131 14.4382 15.7084 14.4335 15.7057 14.4289C15.1466 13.7964 14.4972 13.2488 13.7797 12.8076C13.7778 12.8067 13.776 12.8057 13.7741 12.8048C13.7247 12.774 13.6754 12.7442 13.625 12.7143C13.6213 12.7134 13.6166 12.7106 13.6129 12.7078C13.5225 12.6527 13.4331 12.594 13.3446 12.5343C13.339 12.5305 13.3334 12.5268 13.3278 12.5231C13.3269 12.5231 13.3259 12.5231 13.325 12.5221C13.3203 12.5193 13.3157 12.5156 13.311 12.5119C13.3101 12.5119 13.3082 12.5109 13.3073 12.51C13.2626 12.4792 13.2169 12.4475 13.1731 12.4158C12.916 12.233 12.6709 12.0352 12.4389 11.8225C12.4324 11.815 12.4249 11.8076 12.4184 11.8001C12.4184 11.801 12.4184 11.802 12.4175 11.8029C12.4035 11.7898 12.3886 11.7768 12.3746 11.7637C11.9693 11.385 11.6031 10.9633 11.2826 10.5044C11.2733 10.4923 11.2649 10.4801 11.2556 10.4671C10.7729 9.76743 10.3955 8.98477 10.1514 8.14427C10.1449 8.12561 10.1393 8.10696 10.1347 8.0883C9.93151 7.37746 9.82344 6.62559 9.82344 5.84759C9.82344 5.81401 9.82344 5.78136 9.8253 5.74871H9.82344V1.1852C9.82344 1.1852 9.64733 0.135746 11.058 0.0573902L11.1111 0.0545888C11.1419 0.0536551 11.1736 0.0527213 11.2062 0.0527213H11.2285C11.5686 0.048058 11.9087 0.0499255 12.2498 0.0508593H12.3168C12.4743 0.0517931 12.6327 0.0517931 12.7902 0.0517931V0.0499255C13.2244 0.0499255 13.5868 0.0611197 14.021 0.0489917C15.8286 -0.00138034 15.7727 0.859639 15.7858 1.313C15.7867 1.3242 15.7867 1.44733 15.7867 1.45946V3.1274C15.8119 3.61061 15.8827 4.0817 15.9954 4.536C15.9964 4.5388 15.9973 4.54253 15.9982 4.54627C15.9992 4.54906 15.9992 4.55093 16.001 4.55373C16.1399 5.10877 16.3402 5.63863 16.5946 6.13491C16.6244 6.19368 16.6561 6.25245 16.6877 6.31029C16.7157 6.36252 16.7446 6.41383 16.7744 6.46514C16.7744 6.46607 16.7763 6.467 16.7763 6.467C16.9486 6.76552 17.1415 7.0519 17.354 7.3215C17.421 7.40638 17.4891 7.49034 17.5608 7.57243C17.6037 7.62374 17.6484 7.67411 17.6931 7.72356C18.0313 8.0967 18.4068 8.43252 18.8131 8.72544C18.814 8.72637 18.8159 8.7273 18.8168 8.72823C18.8168 8.72917 18.8177 8.72917 18.8177 8.72917C18.8187 8.7301 18.8205 8.73103 18.8215 8.73197C18.8233 8.73383 18.8243 8.73476 18.8261 8.7357C18.9845 8.84951 19.1485 8.95771 19.3162 9.05846C19.8893 9.36257 20.7027 9.70213 21.0335 9.84859C21.0354 9.84952 21.0381 9.85045 21.04 9.85139C21.0409 9.85139 21.0409 9.85232 21.0419 9.85232C27.4543 12.7572 26.994 16.7377 26.994 17.2806Z" fill="#156757"/>
<path d="M7.2551 16.0187C7.21172 15.9754 7.16745 15.9329 7.1223 15.8913L7.11876 15.8878C7.08778 15.8577 7.05856 15.8285 7.03112 15.7992C7.02315 15.7913 7.01518 15.7824 7.00721 15.7745C7.00457 15.7709 7.00102 15.7683 6.99748 15.7656V15.7647C6.95144 15.7169 6.90629 15.6674 6.86114 15.6187C6.86025 15.6178 6.86025 15.6169 6.86025 15.6169C6.76464 15.5125 6.67434 15.4054 6.58669 15.2965C6.58669 15.2957 6.58669 15.2948 6.58581 15.2948C6.54243 15.2399 6.49993 15.1841 6.45832 15.1284L6.4539 15.1213C6.14846 14.7142 5.88996 14.269 5.6828 13.799C5.67925 13.7919 5.6766 13.7849 5.67306 13.7778C5.67217 13.776 5.67217 13.7751 5.67129 13.7734C5.66863 13.768 5.66597 13.7627 5.6642 13.7574C5.65712 13.7433 5.65181 13.7291 5.64561 13.7149C5.64472 13.7123 5.64384 13.7096 5.64295 13.7079C5.64118 13.7034 5.63941 13.6999 5.63764 13.6955L5.6341 13.6875C5.52963 13.4388 5.43756 13.1751 5.35966 12.9025C5.35523 12.8892 5.35081 12.875 5.34726 12.8609L5.34638 12.8582L5.3393 12.8325L5.33487 12.8157C5.29149 12.6546 5.25431 12.4927 5.2242 12.3281C5.22332 12.3272 5.22243 12.3263 5.22332 12.3254C5.10557 11.9829 4.92498 11.7315 4.6877 11.5766L4.67886 11.5696H4.6762C4.48409 11.4457 4.25214 11.3828 3.98832 11.3828C3.96441 11.3828 3.84074 11.4005 3.76876 11.4324C3.76699 11.4333 3.76433 11.4341 3.76256 11.4341C3.76079 11.435 3.7599 11.435 3.75813 11.4359C3.69527 11.4572 3.63242 11.4793 3.57134 11.5023C3.56957 11.5032 3.56868 11.5032 3.56691 11.5041H3.56602C3.50583 11.5253 3.44739 11.5492 3.38896 11.5731C2.09553 12.1094 1.06503 13.0892 0.487805 14.3327C0.164677 15.0301 0 15.7753 0 16.5471C0 16.8578 0.0274498 17.1702 0.082338 17.4747C0.0876446 17.5039 0.0929617 17.534 0.0991642 17.5632L0.10005 17.5702C0.108004 17.6118 0.117752 17.6579 0.129251 17.7048C0.206283 18.0535 0.322252 18.3969 0.472761 18.727C0.756942 19.3527 1.1571 19.9148 1.66261 20.3971C1.6632 20.3977 1.66379 20.3983 1.66438 20.3989C1.68031 20.4139 1.69537 20.4281 1.71131 20.4423C2.11943 20.8246 2.58333 21.1414 3.08708 21.3848C3.86614 21.7628 4.7063 21.9548 5.58276 21.9548C5.63322 21.9548 5.68367 21.9539 5.73237 21.9522H5.74389C5.94131 21.9468 6.1405 21.9309 6.3397 21.9044H6.34235C6.39723 21.8937 6.45213 21.8796 6.50878 21.8628C6.51587 21.861 6.52384 21.8592 6.5318 21.8566C6.53801 21.8548 6.54508 21.853 6.55128 21.8504H6.55216C6.99836 21.7141 7.38258 21.4512 7.67119 21.1096C7.8819 20.8609 8.04125 20.5697 8.13598 20.2537C8.31658 19.7979 8.4122 19.3076 8.4122 18.8102C8.4122 17.7561 8.00143 16.764 7.2551 16.0187ZM8.15547 18.9465C8.15635 18.95 8.15723 18.9536 8.15812 18.9571C8.15723 18.9527 8.15635 18.9492 8.15458 18.9456L8.15547 18.9465Z" fill="#156757"/>
</svg>
