<?xml version="1.0" encoding="UTF-8"?>
<svg version="1.1" xmlns="http://www.w3.org/2000/svg" width="300" height="300">
<path d="M0 0 C2.125 0.375 2.125 0.375 4 1 C3.26682769 7.6212262 2.01627229 14.02874164 0.54882812 20.5234375 C-2.93555965 37.00472414 -3.37118345 53.84226675 -3.3125 70.625 C-3.31233887 71.5775769 -3.31217773 72.53015381 -3.31201172 73.51159668 C-3.29597984 87.19423508 -2.65449167 100.52328683 -0.65625 114.078125 C0.56613344 122.51216732 0.44239312 129.49927594 -4 137 C-21.33427028 158.49193658 -49.40564742 173.54937268 -73.875 185.375 C-74.7304541 185.79201172 -75.5859082 186.20902344 -76.46728516 186.63867188 C-92.89215993 194.42706734 -92.89215993 194.42706734 -100 192 C-101.875 190.875 -101.875 190.875 -103 189 C-106.24828168 137.27736089 -34.10262289 50.19789282 -7.375 9.9375 C-6.86549805 9.16857422 -6.35599609 8.39964844 -5.83105469 7.60742188 C-5.35829102 6.90037109 -4.88552734 6.19332031 -4.3984375 5.46484375 C-3.98255371 4.842146 -3.56666992 4.21944824 -3.13818359 3.57788086 C-2 2 -2 2 0 0 Z " fill="#02ACED" transform="translate(137,45)"/>
<path d="M0 0 C4.12464213 0.15864008 6.34379257 0.40951764 9.45703125 3.2109375 C24.60775402 19.82785925 36.21121754 39.94532534 48 59 C48.63808594 60.0297998 49.27617187 61.05959961 49.93359375 62.12060547 C60.45668167 79.15099988 70.42937015 96.41196262 80 114 C80.55107422 115.00981934 81.10214844 116.01963867 81.66992188 117.06005859 C85.47011042 124.0274511 89.23935656 131.01120309 93 138 C93.63629003 139.18023142 94.27268689 140.36040526 94.90917969 141.54052734 C96.57512298 144.62980457 98.23848423 147.72046033 99.90014648 150.81204224 C100.83660799 152.5536015 101.77471431 154.29427601 102.71289062 156.03491211 C104.49066218 159.34871928 106.24960829 162.67165472 108 166 C108.48998474 166.92202209 108.48998474 166.92202209 108.98986816 167.8626709 C109.98595906 169.74409575 110.96722524 171.63260173 111.9453125 173.5234375 C112.53070801 174.64411621 113.11610352 175.76479492 113.71923828 176.91943359 C114.97013155 179.92815858 115.29235863 181.79153222 115 185 C112.77734375 185.26953125 112.77734375 185.26953125 110 185 C107.81640625 183.19921875 107.81640625 183.19921875 105.5625 180.6875 C99.55578749 174.38842538 92.96745165 169.19630627 86 164 C85.05108887 163.28457031 85.05108887 163.28457031 84.08300781 162.5546875 C64.03513164 147.53634861 41.44890737 135.44288161 18.24609375 126.04296875 C3.80796048 120.19150432 3.80796048 120.19150432 0 113 C-2.762252 106.24802697 -3.99113442 99.30010136 -5.125 92.125 C-5.29386719 91.11308594 -5.46273437 90.10117188 -5.63671875 89.05859375 C-7.6875437 76.44682772 -8.21311075 64.08047991 -8.24023438 51.32446289 C-8.24986934 48.59945299 -8.28094491 45.87522228 -8.3125 43.15039062 C-8.36903343 34.01951982 -8.00164723 25.07786152 -6.734375 16.02734375 C-6.62603333 15.20706192 -6.51769165 14.38678009 -6.40606689 13.54164124 C-5.54294855 8.05595795 -4.01680821 4.01680821 0 0 Z " fill="#02ACED" transform="translate(151,49)"/>
<path d="M0 0 C55.91909371 23.99638413 55.91909371 23.99638413 67.29150391 42.79345703 C68.47371865 45.80870171 68.03724093 47.71957477 67.06494141 50.76611328 C62.75612788 54.21656356 58.12163966 54.66557936 52.81494141 55.32861328 C51.86385498 55.45155762 50.91276855 55.57450195 49.93286133 55.70117188 C24.16426608 58.815632 -2.00454248 59.32522361 -27.93505859 59.76611328 C-28.61004395 59.77813782 -29.2850293 59.79016235 -29.98046875 59.80255127 C-52.02076288 60.18095715 -74.03289172 59.54230557 -96.06005859 58.82861328 C-96.73634434 58.80679867 -97.41263008 58.78498405 -98.10940933 58.76250839 C-107.38588614 58.46221672 -116.66089778 58.13121163 -125.93505859 57.76611328 C-126.91180542 57.72911316 -127.88855225 57.69211304 -128.89489746 57.6539917 C-131.42711364 57.55465692 -133.95834559 57.44281387 -136.48974609 57.32470703 C-137.19197296 57.29788345 -137.89419983 57.27105988 -138.6177063 57.24342346 C-142.43260795 57.04578672 -145.47875449 56.40551455 -148.93505859 54.76611328 C-148.77392578 52.89648438 -148.77392578 52.89648438 -147.93505859 50.76611328 C-145.61962891 49.61621094 -145.61962891 49.61621094 -142.51318359 48.68017578 C-141.35689453 48.31432373 -140.20060547 47.94847168 -139.00927734 47.5715332 C-138.38714355 47.3804599 -137.76500977 47.1893866 -137.12402344 46.99252319 C-104.70883336 36.93828385 -75.62644264 19.86984467 -48.859375 -0.83984375 C-32.31303426 -13.5680997 -17.54944468 -7.37771531 0 0 Z " fill="#02ADED" transform="translate(187.93505859375,195.23388671875)"/>
<path d="M0 0 C4.30544281 4.7564892 6.91121468 10.3075276 9.75 16 C10.25660156 16.98484375 10.76320313 17.9696875 11.28515625 18.984375 C11.76339844 19.93828125 12.24164063 20.8921875 12.734375 21.875 C13.16975586 22.73867187 13.60513672 23.60234375 14.05371094 24.4921875 C15.06635368 27.17584751 15.18469628 29.15695101 15 32 C12.77734375 32.26953125 12.77734375 32.26953125 10 32 C7.81640625 30.19921875 7.81640625 30.19921875 5.5625 27.6875 C0.91562406 22.76686551 -4.04543806 18.65687863 -9.44116211 14.58081055 C-13.90766226 11.18467547 -13.90766226 11.18467547 -15 9 C-12.03 9.495 -12.03 9.495 -9 10 C-8.34 9.01 -7.68 8.02 -7 7 C-6.67 7.66 -6.34 8.32 -6 9 C-5.01 8.34 -4.02 7.68 -3 7 C-0.3125 7.375 -0.3125 7.375 2 8 C1.67 7.4225 1.34 6.845 1 6.25 C0 4 0 4 0 0 Z " fill="#02ADF0" transform="translate(251,202)"/>
<path d="M0 0 C4.28602114 0.16484697 6.46146021 0.55720062 9.8125 3.3125 C11.61655425 5.5289095 12.92947789 7.37235483 14 10 C11.525 8.515 11.525 8.515 9 7 C8.8509288 9.0745356 8.8509288 9.0745356 10 11 C10.99 11.33 11.98 11.66 13 12 C12.01 13.485 12.01 13.485 11 15 C10.34 15 9.68 15 9 15 C9 14.34 9 13.68 9 13 C7.741875 13.165 6.48375 13.33 5.1875 13.5 C2.73543415 13.82158241 0.48349306 14 -2 14 C-3.90318884 16.85478326 -4.4619099 18.41941308 -5.125 21.6875 C-5.29257813 22.49574219 -5.46015625 23.30398437 -5.6328125 24.13671875 C-5.75398437 24.75160156 -5.87515625 25.36648437 -6 26 C-6.33 26 -6.66 26 -7 26 C-7.33977802 16.99588238 -6.86787061 8.19287365 -1 1 C-0.67 0.67 -0.34 0.34 0 0 Z " fill="#06ACE9" transform="translate(151,49)"/>
<path d="M0 0 C4.30544281 4.7564892 6.91121468 10.3075276 9.75 16 C10.25660156 16.98484375 10.76320313 17.9696875 11.28515625 18.984375 C11.76339844 19.93828125 12.24164063 20.8921875 12.734375 21.875 C13.16975586 22.73867187 13.60513672 23.60234375 14.05371094 24.4921875 C15.06635368 27.17584751 15.18469628 29.15695101 15 32 C12.625 32.1875 12.625 32.1875 10 32 C9.34 31.01 8.68 30.02 8 29 C9.98 29.66 11.96 30.32 14 31 C13.360625 30.46375 12.72125 29.9275 12.0625 29.375 C9.56402993 26.49797386 9.38193744 24.74298688 9 21 C8.67364302 19.33195323 8.34274406 17.66475686 8 16 C7.38125 15.938125 6.7625 15.87625 6.125 15.8125 C4 15 4 15 2.75 12.4375 C2.5025 11.633125 2.255 10.82875 2 10 C1.01 10 0.02 10 -1 10 C-1 11.32 -1 12.64 -1 14 C-2.98 13.34 -4.96 12.68 -7 12 C-7 12.99 -7 13.98 -7 15 C-5.68 15 -4.36 15 -3 15 C-2.67 16.65 -2.34 18.3 -2 20 C-6.69159716 16.61227103 -11.0299782 13.21814817 -15 9 C-12.03 9.495 -12.03 9.495 -9 10 C-8.34 9.01 -7.68 8.02 -7 7 C-6.67 7.66 -6.34 8.32 -6 9 C-5.01 8.34 -4.02 7.68 -3 7 C-0.3125 7.375 -0.3125 7.375 2 8 C1.67 7.4225 1.34 6.845 1 6.25 C0 4 0 4 0 0 Z " fill="#04ABEB" transform="translate(251,202)"/>
<path d="M0 0 C2.125 0.375 2.125 0.375 4 1 C3.30654365 7.2484067 2.20358931 13.34403221 0.9375 19.5 C0.75123047 20.4178125 0.56496094 21.335625 0.37304688 22.28125 C-0.08198127 24.52138854 -0.53971267 26.76093726 -1 29 C-1.33 29 -1.66 29 -2 29 C-2.12086218 22.56744599 -1.82351864 16.38226945 -1 10 C-1.99 10.495 -1.99 10.495 -3 11 C-3 12.65 -3 14.3 -3 16 C-3.99 16.33 -4.98 16.66 -6 17 C-6.33 17.66 -6.66 18.32 -7 19 C-9.30532837 20.30635274 -11.47571223 21.15857074 -14 22 C-12.38659413 17.26062027 -9.78869543 13.41984999 -7 9.3125 C-6.32324219 8.29833008 -6.32324219 8.29833008 -5.6328125 7.26367188 C-3.86382663 4.63374466 -2.2477334 2.2477334 0 0 Z " fill="#1FA7D9" transform="translate(137,45)"/>
<path d="M0 0 C-1.32 0.33 -2.64 0.66 -4 1 C-4 1.66 -4 2.32 -4 3 C-3.34 3.66 -2.68 4.32 -2 5 C-2.33 5.99 -2.66 6.98 -3 8 C6.24 8 15.48 8 25 8 C25 8.66 25 9.32 25 10 C15.7200713 10.09872265 6.45881167 10.07808029 -2.8125 9.625 C-3.55806152 9.59414307 -4.30362305 9.56328613 -5.07177734 9.53149414 C-9.09075643 9.31046408 -12.36530478 8.75665034 -16 7 C-15.8671875 5.14453125 -15.8671875 5.14453125 -15 3 C-12.3828125 1.69921875 -12.3828125 1.69921875 -9.125 0.6875 C-8.05507813 0.34074219 -6.98515625 -0.00601563 -5.8828125 -0.36328125 C-3 -1 -3 -1 0 0 Z " fill="#1EAADD" transform="translate(55,243)"/>
<path d="M0 0 C0 0.66 0 1.32 0 2 C-0.92683594 2.31453125 -1.85367188 2.6290625 -2.80859375 2.953125 C-4.00613281 3.38109375 -5.20367187 3.8090625 -6.4375 4.25 C-7.63246094 4.66765625 -8.82742187 5.0853125 -10.05859375 5.515625 C-13.13815483 6.67037439 -13.13815483 6.67037439 -13.91015625 9.171875 C-13.93980469 9.77515625 -13.96945313 10.3784375 -14 11 C-13.01 11 -12.02 11 -11 11 C-12.41666667 15.25 -12.41666667 15.25 -15 17 C-17.71836308 17.25786843 -20.25839624 17.13483297 -23 17 C-23 16.01 -23 15.02 -23 14 C-23.66 13.34 -24.32 12.68 -25 12 C-23.625 10.5 -23.625 10.5 -22 9 C-21.34 9 -20.68 9 -20 9 C-20 8.34 -20 7.68 -20 7 C-18.86820313 6.57847656 -17.73640625 6.15695313 -16.5703125 5.72265625 C-15.08852006 5.16932869 -13.60675041 4.61594011 -12.125 4.0625 C-11.37863281 3.78470703 -10.63226563 3.50691406 -9.86328125 3.22070312 C-1.24887048 0 -1.24887048 0 0 0 Z " fill="#0DABE6" transform="translate(75,234)"/>
<path d="M0 0 C2.33944736 0.28730055 4.6739143 0.61936779 7 1 C4.66785852 2.20628008 2.50357861 3.1654738 0 4 C0.33 4.66 0.66 5.32 1 6 C0.34 6.66 -0.32 7.32 -1 8 C-1.36548445 9.32488113 -1.6937566 10.66018514 -2 12 C-2.309375 12.721875 -2.61875 13.44375 -2.9375 14.1875 C-4.39146184 18.03622251 -5.17595705 21.9762158 -6 26 C-6.33 26 -6.66 26 -7 26 C-7.33977802 16.99588238 -6.86787061 8.19287365 -1 1 C-0.67 0.67 -0.34 0.34 0 0 Z " fill="#0BAAE9" transform="translate(151,49)"/>
<path d="M0 0 C0.33 1.98 0.66 3.96 1 6 C0.01 6.33 -0.98 6.66 -2 7 C-2.33 7.66 -2.66 8.32 -3 9 C-5.30532837 10.30635274 -7.47571223 11.15857074 -10 12 C-5.76470588 0 -5.76470588 0 0 0 Z " fill="#0EAAE2" transform="translate(133,55)"/>
<path d="M0 0 C2.74368421 3.38528421 4.7325224 7.06427716 6.6875 10.9375 C7.00783203 11.54529297 7.32816406 12.15308594 7.65820312 12.77929688 C9.45606614 16.33285554 10.40137073 19.00901176 10 23 C7.625 23.1875 7.625 23.1875 5 23 C4.34 22.01 3.68 21.02 3 20 C4.98 20.66 6.96 21.32 9 22 C8.360625 21.46375 7.72125 20.9275 7.0625 20.375 C4.56402993 17.49797386 4.38193744 15.74298688 4 12 C3.67364302 10.33195323 3.34274406 8.66475686 3 7 C2.34 7 1.68 7 1 7 C0.67 4.69 0.34 2.38 0 0 Z " fill="#25A5D8" transform="translate(256,211)"/>
<path d="M0 0 C0.66 0.33 1.32 0.66 2 1 C1.67 1.66 1.34 2.32 1 3 C1.5775 3.144375 2.155 3.28875 2.75 3.4375 C4.83333333 3.95833333 6.91666667 4.47916667 9 5 C9 5.99 9 6.98 9 8 C10.32 8.66 11.64 9.32 13 10 C13 10.66 13 11.32 13 12 C6.41321432 10.78022487 1.84362519 6.31319938 -3 2 C-2.01 1.34 -1.02 0.68 0 0 Z " fill="#15A8DE" transform="translate(252,221)"/>
<path d="M0 0 C1.65 0 3.3 0 5 0 C1.71260831 2.73949307 -1.70565274 5.26584559 -5.1875 7.75 C-6.47720703 8.67039063 -6.47720703 8.67039063 -7.79296875 9.609375 C-10 11 -10 11 -12 11 C-12 9.68 -12 8.36 -12 7 C-11.16855469 6.72736328 -11.16855469 6.72736328 -10.3203125 6.44921875 C-9.59585938 6.19785156 -8.87140625 5.94648438 -8.125 5.6875 C-7.40570313 5.44386719 -6.68640625 5.20023438 -5.9453125 4.94921875 C-3.66005095 4.03664453 -3.66005095 4.03664453 -2 1 C-1.34 1.33 -0.68 1.66 0 2 C0 1.34 0 0.68 0 0 Z " fill="#23A6DA" transform="translate(103,203)"/>
<path d="M0 0 C0.66 0 1.32 0 2 0 C3.43794854 8.07562173 4.29599372 15.7943963 4 24 C3.67 24 3.34 24 3 24 C2.49061655 21.50159546 1.99236886 19.00176612 1.5 16.5 C1.35691406 15.80390625 1.21382812 15.1078125 1.06640625 14.390625 C0.11722627 9.50912797 -0.13440046 4.97281701 0 0 Z " fill="#25A8DD" transform="translate(145,129)"/>
<path d="M0 0 C0.66 0.33 1.32 0.66 2 1 C1.67 2.32 1.34 3.64 1 5 C-0.98 5.33 -2.96 5.66 -5 6 C-5 6.66 -5 7.32 -5 8 C-5.99 8 -6.98 8 -8 8 C-8 8.99 -8 9.98 -8 11 C-9.98 11.33 -11.96 11.66 -14 12 C-9.73412126 7.45890328 -4.96387672 3.75264754 0 0 Z " fill="#1FA8DD" transform="translate(143,191)"/>
<path d="M0 0 C0.85696068 3.31262111 1.46228519 6.62007831 2 10 C1.01 10.33 0.02 10.66 -1 11 C-1.66 11.66 -2.32 12.32 -3 13 C-3.66 12.67 -4.32 12.34 -5 12 C-5 12.99 -5 13.98 -5 15 C-5.66 15 -6.32 15 -7 15 C-5.63408831 11.45756548 -4.09068516 8.07372071 -2.375 4.6875 C-1.70597656 3.36298828 -1.70597656 3.36298828 -1.0234375 2.01171875 C-0.68570313 1.34785156 -0.34796875 0.68398437 0 0 Z " fill="#1AA9DF" transform="translate(70,153)"/>
<path d="M0 0 C3.14822808 2.93927489 5.45457845 5.9856778 7.75 9.625 C8.36359375 10.58664063 8.9771875 11.54828125 9.609375 12.5390625 C11 15 11 15 11 17 C10.34 17 9.68 17 9 17 C8.67 17.66 8.34 18.32 8 19 C7 17 7 17 7 13 C6.34 12.67 5.68 12.34 5 12 C4.26924352 9.6859378 3.59861742 7.35171131 3 5 C1.68 4.67 0.36 4.34 -1 4 C-0.67 2.68 -0.34 1.36 0 0 Z " fill="#1EA5D9" transform="translate(180,80)"/>
<path d="M0 0 C3.07656862 3.07656862 3.69662466 3.85387034 4 8 C3.17493551 10.62520519 2.45328479 11.6873898 0.1875 13.25 C-2.32321365 14.11081611 -4.36348649 14.14647297 -7 14 C-7 13.34 -7 12.68 -7 12 C-5.02 12 -3.04 12 -1 12 C-1 11.34 -1 10.68 -1 10 C-0.34 9.67 0.32 9.34 1 9 C0.67 6.03 0.34 3.06 0 0 Z " fill="#23A8D5" transform="translate(252,235)"/>
<path d="M0 0 C3.26906207 3.26906207 4.91626844 5.90695586 7 10 C6.67 10.66 6.34 11.32 6 12 C3.69 11.01 1.38 10.02 -1 9 C-0.67 6.03 -0.34 3.06 0 0 Z " fill="#17A8E2" transform="translate(226,156)"/>
<path d="M0 0 C4.17383395 3.92831431 7.89394426 8.16479983 11 13 C11 13.66 11 14.32 11 15 C9.68 15 8.36 15 7 15 C6.67 13.35 6.34 11.7 6 10 C5.01 9.67 4.02 9.34 3 9 C3 8.01 3 7.02 3 6 C2.34 5.67 1.68 5.34 1 5 C0.375 2.4375 0.375 2.4375 0 0 Z " fill="#19A8DB" transform="translate(165,59)"/>
<path d="M0 0 C0.66 0.33 1.32 0.66 2 1 C2 2.65 2 4.3 2 6 C2.61875 6.0825 3.2375 6.165 3.875 6.25 C6 7 6 7 7.25 9.0625 C7.4975 9.701875 7.745 10.34125 8 11 C2.91061189 9.40956621 -0.87456643 6.2553049 -5 3 C-4.34 2.67 -3.68 2.34 -3 2 C-2.34 2.33 -1.68 2.66 -1 3 C-0.67 2.01 -0.34 1.02 0 0 Z " fill="#19AADC" transform="translate(228,200)"/>
<path d="M0 0 C0.33 0 0.66 0 1 0 C1.33 2.31 1.66 4.62 2 7 C0.02 7.99 0.02 7.99 -2 9 C-2 9.99 -2 10.98 -2 12 C-3.32 12.33 -4.64 12.66 -6 13 C-4.31326082 8.50202887 -2.18326108 4.27113698 0 0 Z " fill="#18A9DF" transform="translate(62,168)"/>
<path d="M0 0 C0.33 1.32 0.66 2.64 1 4 C0.34 4 -0.32 4 -1 4 C-1 4.66 -1 5.32 -1 6 C-0.34 6.33 0.32 6.66 1 7 C-3.625 11.875 -3.625 11.875 -7 13 C-5.35821735 8.22390502 -2.73453298 4.20617096 0 0 Z " fill="#19A8E0" transform="translate(110,86)"/>
<path d="M0 0 C0.66 0 1.32 0 2 0 C2.33 0.66 2.66 1.32 3 2 C3.66 2 4.32 2 5 2 C5 1.34 5 0.68 5 0 C6.65 0 8.3 0 10 0 C6.09130466 3.15702316 2.1385061 6 -3 6 C-2.42655063 3.13275314 -2.1385485 2.1385485 0 0 Z " fill="#17A8E3" transform="translate(58,227)"/>
<path d="M0 0 C1.05071669 3.6854684 0.95839938 6.24626908 0 10 C-1.375 11.5625 -1.375 11.5625 -3 13 C-4.03357147 14.64605826 -5.04060332 16.30963442 -6 18 C-6.33 17.34 -6.66 16.68 -7 16 C-5.92664301 13.23325418 -4.79739939 10.56805742 -3.5625 7.875 C-3.22412109 7.12089844 -2.88574219 6.36679688 -2.53710938 5.58984375 C-1.69839399 3.72340669 -0.85008607 1.8612857 0 0 Z " fill="#23A8DB" transform="translate(44,203)"/>
<path d="M0 0 C0.66 0.33 1.32 0.66 2 1 C-4 7 -4 7 -6.5625 7.0625 C-7.7690625 7.0315625 -7.7690625 7.0315625 -9 7 C-9 7.66 -9 8.32 -9 9 C-10.32 8.67 -11.64 8.34 -13 8 C-10.880788 6.63594382 -8.75551882 5.28368225 -6.625 3.9375 C-6.02171875 3.54755859 -5.4184375 3.15761719 -4.796875 2.75585938 C-3.23507443 1.77539568 -1.62007786 0.88083925 0 0 Z " fill="#24AADC" transform="translate(114,212)"/>
<path d="M0 0 C3.0916909 2.52956528 3.90931332 5.22454612 5 9 C2.0625 8.1875 2.0625 8.1875 -1 7 C-2 4 -2 4 -1.0625 1.8125 C-0.5365625 0.9153125 -0.5365625 0.9153125 0 0 Z " fill="#14A8DF" transform="translate(244,189)"/>
<path d="M0 0 C2.61500768 2.36595933 4.38999603 4.86049226 6 8 C5.67 8.66 5.34 9.32 5 10 C4.34 9.67 3.68 9.34 3 9 C3 8.34 3 7.68 3 7 C1.35 6.67 -0.3 6.34 -2 6 C-1.33333333 4 -0.66666667 2 0 0 Z " fill="#17A7DE" transform="translate(204,118)"/>
<path d="M0 0 C0.83583327 2.37607949 1.1842383 3.54449627 0.22265625 5.921875 C-0.8515625 7.61458333 -1.92578125 9.30729167 -3 11 C-3.66 11 -4.32 11 -5 11 C-5 11.66 -5 12.32 -5 13 C-5.66 13 -6.32 13 -7 13 C-5.35821735 8.22390502 -2.73453298 4.20617096 0 0 Z " fill="#20A7D7" transform="translate(118,73)"/>
<path d="M0 0 C0.97687451 3.03916514 1.105817 4.98413546 0 8 C-0.66 8.66 -1.32 9.32 -2 10 C-2.99 10 -3.98 10 -5 10 C-3.66511872 6.40608886 -2.03977277 3.24509304 0 0 Z " fill="#16AADE" transform="translate(102,99)"/>
<path d="M0 0 C5.75 1.625 5.75 1.625 8 5 C10.05925139 5.72382467 10.05925139 5.72382467 12 6 C12.33 7.65 12.66 9.3 13 11 C8.30840284 7.61227103 3.9700218 4.21814817 0 0 Z " fill="#21A6D8" transform="translate(236,211)"/>
<path d="M0 0 C-1.78614318 1.03046722 -3.57910018 2.04913236 -5.375 3.0625 C-6.87160156 3.91521484 -6.87160156 3.91521484 -8.3984375 4.78515625 C-9.25695312 5.18605469 -10.11546875 5.58695313 -11 6 C-11.66 5.67 -12.32 5.34 -13 5 C-12.67 4.01 -12.34 3.02 -12 2 C-10.02 2.495 -10.02 2.495 -8 3 C-8 2.34 -8 1.68 -8 1 C-4.85571151 -0.9090323 -3.47925125 -1.04523725 0 0 Z " fill="#24A7D6" transform="translate(87,218)"/>
<path d="M0 0 C1.98 0.99 1.98 0.99 4 2 C4 2.99 4 3.98 4 5 C4.99 5 5.98 5 7 5 C7.66 6.65 8.32 8.3 9 10 C4.71095765 8.4114658 2.67654474 5.56872632 0 2 C0 1.34 0 0.68 0 0 Z " fill="#21A7D9" transform="translate(151,160)"/>
<path d="M0 0 C0.33 0 0.66 0 1 0 C1.19818283 6.70518586 1.30844801 12.65176798 -1 19 C-1.33 19 -1.66 19 -2 19 C-2.24794402 12.4294834 -1.32388229 6.43028541 0 0 Z " fill="#26ABDF" transform="translate(146,56)"/>
<path d="M0 0 C0 0.66 0 1.32 0 2 C-3 4 -3 4 -6 4 C-6 4.66 -6 5.32 -6 6 C-7.98 6 -9.96 6 -12 6 C-8.59780735 3.25207517 -4.51535412 0 0 0 Z " fill="#22A7DF" transform="translate(98,223)"/>
<path d="M0 0 C0.66 1.65 1.32 3.3 2 5 C-1.3 4.01 -4.6 3.02 -8 2 C-4 0 -4 0 0 0 Z " fill="#1EA7DC" transform="translate(174,172)"/>
<path d="M0 0 C2.64 0 5.28 0 8 0 C5.6870518 2.3129482 4.52095125 2.49580975 1.375 3.125 C0.55773438 3.29257813 -0.25953125 3.46015625 -1.1015625 3.6328125 C-2.04128906 3.81457031 -2.04128906 3.81457031 -3 4 C-3 3.34 -3 2.68 -3 2 C-2.01 2 -1.02 2 0 2 C0 1.34 0 0.68 0 0 Z " fill="#1EA8D7" transform="translate(47,233)"/>
<path d="M0 0 C0.33 0 0.66 0 1 0 C1.61528766 5.07612318 -0.38341651 7.82982006 -3 12 C-3.66 12 -4.32 12 -5 12 C-3.68938409 7.76570244 -2.05643741 3.92592596 0 0 Z " fill="#28A6D3" transform="translate(50,191)"/>
<path d="M0 0 C5.07612318 -0.61528766 7.82982006 1.38341651 12 4 C12 4.66 12 5.32 12 6 C7.76570244 4.68938409 3.92592596 3.05643741 0 1 C0 0.67 0 0.34 0 0 Z " fill="#23A7D7" transform="translate(181,179)"/>
<path d="M0 0 C0.33 0 0.66 0 1 0 C1 3.3 1 6.6 1 10 C0.34 10 -0.32 10 -1 10 C-1.33 10.99 -1.66 11.98 -2 13 C-2.19294408 8.17639811 -1.75747614 4.50353262 0 0 Z " fill="#20AADC" transform="translate(36,221)"/>
<path d="M0 0 C-0.33 1.32 -0.66 2.64 -1 4 C-3.97 3.505 -3.97 3.505 -7 3 C-7 2.34 -7 1.68 -7 1 C-2.25 0 -2.25 0 0 0 Z " fill="#03ADF0" transform="translate(48,246)"/>
<path d="M0 0 C4.12751449 0.60698743 7.3321148 2.03810791 11 4 C7.97121688 4.97353743 5.97153543 5.24612776 3 4 C1.25 1.9375 1.25 1.9375 0 0 Z " fill="#28A7D9" transform="translate(196,200)"/>
<path d="M0 0 C0.33 0.66 0.66 1.32 1 2 C3.01669827 3.13350534 3.01669827 3.13350534 5 4 C5 4.66 5 5.32 5 6 C2.83125748 5.49396008 1.00032373 5.00016187 -1 4 C-0.67 2.68 -0.34 1.36 0 0 Z " fill="#07ADEA" transform="translate(260,227)"/>
<path d="M0 0 C-1.28965176 1.37562854 -2.62689293 2.70766393 -4 4 C-4.66 4 -5.32 4 -6 4 C-6 2.68 -6 1.36 -6 0 C-3 -1 -3 -1 0 0 Z " fill="#14A9DF" transform="translate(97,210)"/>
<path d="M0 0 C0.66 0.33 1.32 0.66 2 1 C0.875 2.9375 0.875 2.9375 -1 5 C-4.1875 5.75 -4.1875 5.75 -7 6 C-4.74259377 3.66475218 -2.7194239 1.81294927 0 0 Z " fill="#24A9D8" transform="translate(123,206)"/>
<path d="M0 0 C4.42857143 5.14285714 4.42857143 5.14285714 5 9 C2 8 2 8 0.8125 6.1875 C0 4 0 4 0 0 Z " fill="#20A5DA" transform="translate(251,202)"/>
<path d="M0 0 C2.31 0.33 4.62 0.66 7 1 C3.86501708 2.85776765 1.62528568 3.20140476 -2 3 C-1.34 2.01 -0.68 1.02 0 0 Z " fill="#2AA6D2" transform="translate(151,49)"/>
<path d="M0 0 C0.66 0.33 1.32 0.66 2 1 C0.02 2.98 -1.96 4.96 -4 7 C-4.66 6.67 -5.32 6.34 -6 6 C-3.375 1.125 -3.375 1.125 0 0 Z " fill="#26A7CF" transform="translate(126,186)"/>
<path d="M0 0 C0.66 0 1.32 0 2 0 C1.39816251 2.02045442 0.72693904 4.02111039 0 6 C-0.99 6.495 -0.99 6.495 -2 7 C-2 6.01 -2 5.02 -2 4 C-2.66 3.67 -3.32 3.34 -4 3 C-2.68 2.67 -1.36 2.34 0 2 C0 1.34 0 0.68 0 0 Z " fill="#1FA7DB" transform="translate(133,176)"/>
<path d="M0 0 C4 4.75 4 4.75 4 7 C2.35 7 0.7 7 -1 7 C-0.67 4.69 -0.34 2.38 0 0 Z " fill="#19A6DC" transform="translate(219,143)"/>
<path d="M0 0 C0 1.32 0 2.64 0 4 C-0.99 4 -1.98 4 -3 4 C-3 4.66 -3 5.32 -3 6 C-3.66 5.67 -4.32 5.34 -5 5 C-4.625 3.0625 -4.625 3.0625 -4 1 C-2 0 -2 0 0 0 Z " fill="#03AEE8" transform="translate(139,47)"/>
</svg>
